<svg width="24" height="24" viewBox="0 0 24 24" fill="none" xmlns="http://www.w3.org/2000/svg">
<g clip-path="url(#clip0_19_42975)">
<path d="M21.001 12H12.022L9.96795 9.065C9.06295 7.772 7.57995 7 6.00195 7H5.50195C3.57195 7 2.00195 8.57 2.00195 10.5V12.184C0.840953 12.598 0.00195312 13.698 0.00195312 15V19C0.00195312 21.757 2.24495 24 5.00195 24H19.002C21.759 24 24.002 21.757 24.002 19V15C24.002 13.346 22.655 12 21.001 12ZM9.00095 14V22H7.00095V14H9.00095ZM11.001 14H13.001V22H11.001V14ZM15.001 14H17.001V22H15.001V14ZM5.50095 9H6.00095C6.92695 9 7.79695 9.453 8.32895 10.212L9.58095 12H4.00095V10.5C4.00095 9.673 4.67395 9 5.50095 9ZM2.00095 19V15C2.00095 14.449 2.44995 14 3.00095 14H5.00095V22C3.34695 22 2.00095 20.654 2.00095 19ZM22.001 19C22.001 20.654 20.655 22 19.001 22V14H21.001C21.552 14 22.001 14.449 22.001 15V19ZM3.00095 2.5C3.00095 1.119 4.11995 0 5.50095 0C6.88195 0 8.00095 1.119 8.00095 2.5C8.00095 3.881 6.88195 5 5.50095 5C4.11995 5 3.00095 3.881 3.00095 2.5ZM19.001 1.172V1.003C18.999 0.451 19.445 0.002 19.998 0H20.001C20.552 0 21 0.446 21.001 0.997V1.169C21.001 1.807 21.259 2.43 21.709 2.879C22.542 3.712 23.002 4.82 23.002 6C23.002 6.552 22.554 7 22.002 7C21.45 7 21.002 6.552 21.002 6C21.002 5.355 20.751 4.749 20.295 4.293C19.461 3.459 19.002 2.351 19.002 1.171L19.001 1.172ZM16.294 4.986C15.46 4.152 15.001 3.044 15.001 1.864V1C15.001 0.448 15.449 0 16.001 0C16.553 0 17.001 0.448 17.001 1V1.864C17.001 2.499 17.259 3.122 17.708 3.571C18.541 4.404 19.001 5.512 19.001 6.692V7C19.001 7.552 18.553 8 18.001 8C17.449 8 17.001 7.552 17.001 7V6.692C17.001 6.047 16.75 5.442 16.294 4.986Z" fill="#151A2D"/>
</g>
<defs>
<clipPath id="clip0_19_42975">
<rect width="24" height="24" fill="white"/>
</clipPath>
</defs>
</svg>
